<mxfile host="65bd71144e">
    <diagram id="JJKXBvccqA4lDtZtsicf" name="Page-1">
        <mxGraphModel dx="624" dy="931" grid="1" gridSize="10" guides="1" tooltips="1" connect="1" arrows="1" fold="1" page="1" pageScale="1" pageWidth="850" pageHeight="1100" math="0" shadow="0">
            <root>
                <mxCell id="0"/>
                <mxCell id="1" parent="0"/>
                <mxCell id="90" value="" style="html=1;shadow=0;dashed=0;align=center;verticalAlign=middle;shape=mxgraph.arrows2.jumpInArrow;dy=15;dx=38;arrowHead=55;fontSize=16;fontColor=#000000;rotation=60;fillColor=#000000;" vertex="1" parent="1">
                    <mxGeometry x="367.5" y="512.33" width="190" height="85" as="geometry"/>
                </mxCell>
                <mxCell id="91" value="安全性" style="ellipse;whiteSpace=wrap;html=1;fontSize=16;fillColor=#f5f5f5;strokeColor=#666666;fontColor=#333333;" vertex="1" parent="1">
                    <mxGeometry x="260" y="480" width="120" height="80" as="geometry"/>
                </mxCell>
                <mxCell id="92" value="高价值" style="ellipse;whiteSpace=wrap;html=1;fontSize=16;fillColor=#f5f5f5;strokeColor=#666666;fontColor=#333333;" vertex="1" parent="1">
                    <mxGeometry x="450" y="640" width="120" height="80" as="geometry"/>
                </mxCell>
                <mxCell id="93" value="" style="html=1;shadow=0;dashed=0;align=center;verticalAlign=middle;shape=mxgraph.arrows2.jumpInArrow;dy=15;dx=38;arrowHead=55;fontSize=16;fontColor=#000000;rotation=-180;fillColor=#000000;" vertex="1" parent="1">
                    <mxGeometry x="300" y="730" width="200" height="95" as="geometry"/>
                </mxCell>
                <mxCell id="94" value="健康挖矿" style="ellipse;whiteSpace=wrap;html=1;fontSize=16;fillColor=#f5f5f5;strokeColor=#666666;fontColor=#333333;" vertex="1" parent="1">
                    <mxGeometry x="190" y="720" width="120" height="80" as="geometry"/>
                </mxCell>
                <mxCell id="95" value="" style="html=1;shadow=0;dashed=0;align=center;verticalAlign=middle;shape=mxgraph.arrows2.jumpInArrow;dy=15;dx=38;arrowHead=55;fontSize=16;fontColor=#000000;rotation=-60;fillColor=#000000;" vertex="1" parent="1">
                    <mxGeometry x="117.5" y="570.67" width="190" height="85" as="geometry"/>
                </mxCell>
            </root>
        </mxGraphModel>
    </diagram>
</mxfile>